<svg xmlns="http://www.w3.org/2000/svg" viewBox="0 0 20 20" width="20" height="20">
	<path id="Page 1" style="fill: #ffffff" d="M3,18c-0.55,0 -1,-0.45 -1,-1c0,-0.55 0.45,-1 1,-1c0.55,0 1,0.45 1,1c0,0.55 -0.45,1 -1,1zM17,18c-0.55,0 -1,-0.45 -1,-1c0,-0.55 0.45,-1 1,-1c0.55,0 1,0.45 1,1c0,0.55 -0.45,1 -1,1zM10,9c0.55,0 1,0.45 1,1c0,0.55 -0.45,1 -1,1c-0.55,0 -1,-0.45 -1,-1c0,-0.55 0.45,-1 1,-1zM17,4c-0.55,0 -1,-0.45 -1,-1c0,-0.55 0.45,-1 1,-1c0.55,0 1,0.45 1,1c0,0.55 -0.45,1 -1,1zM3,2c0.55,0 1,0.45 1,1c0,0.55 -0.45,1 -1,1c-0.55,0 -1,-0.45 -1,-1c0,-0.55 0.45,-1 1,-1zM3,14c-1.66,0 -3,1.34 -3,3c0,1.66 1.34,3 3,3c1.3,0 2.4,-0.84 2.82,-2h8.37c0.41,1.16 1.51,2 2.82,2c1.66,0 3,-1.34 3,-3c0,-1.66 -1.34,-3 -3,-3c-0.46,0 -0.89,0.11 -1.29,0.3l-3.01,-3.01c0.19,-0.39 0.3,-0.82 0.3,-1.29c0,-1.66 -1.34,-3 -3,-3c-0.46,0 -0.89,0.11 -1.29,0.3l-3.01,-3.01c0.05,-0.09 0.08,-0.19 0.12,-0.29h8.37c0.41,1.16 1.51,2 2.82,2c1.66,0 3,-1.34 3,-3c0,-1.66 -1.34,-3 -3,-3c-1.3,0 -2.4,0.84 -2.82,2h-8.37c-0.41,-1.16 -1.51,-2 -2.82,-2c-1.66,0 -3,1.34 -3,3c0,1.66 1.34,3 3,3c0.46,0 0.9,-0.11 1.29,-0.3l3.01,3.01c-0.19,0.39 -0.3,0.82 -0.3,1.29c0,1.66 1.34,3 3,3c0.46,0 0.89,-0.11 1.29,-0.3l3.01,3.01c-0.05,0.09 -0.08,0.19 -0.12,0.29h-8.37c-0.41,-1.16 -1.51,-2 -2.82,-2z" />
</svg>