<svg width="16" height="16" viewBox="0 0 16 16" version="1.1" xmlns="http://www.w3.org/2000/svg" xmlns:xlink="http://www.w3.org/1999/xlink">
<title>Combined Shape</title>
<desc>Created using Figma</desc>
<g id="Canvas" transform="translate(-3455 -533)">
<g id="Combined Shape">
<use xlink:href="#path0_fill" transform="matrix(0.707107 0.707107 -0.707107 0.707107 3463 533.929)" fill="#fff" fill-opacity="1"/>
</g>
</g>
<defs>
<path id="path0_fill" fill-rule="evenodd" d="M 6.00005 0.999893C 5.99996 0.447725 5.55224 -2.28706e-13 5.00007 -8.63167e-05C 4.44769 -4.31584e-05 4.00005 0.447596 4 0.999979L 4 4L 0.999979 4C 0.447811 3.99992 2.28706e-13 4.44773 8.63167e-05 4.9999C 4.31584e-05 5.55228 0.447725 5.99996 1.00011 5.99992L 4.00009 5.99988L 4.00009 8.9999C 4 9.55224 4.44773 9.99997 5.00007 9.99988C 5.55224 9.99997 6.00005 9.55216 5.99996 8.99999L 5.99996 5.99996L 9.00003 6.00001C 9.55237 5.99992 10 5.55228 10.0001 4.99994C 9.99997 4.44773 9.55224 4 9.00007 3.99992L 6.00005 3.99992L 6.00005 0.999893Z"/>
</defs>
</svg>
