<svg xmlns="http://www.w3.org/2000/svg" viewBox="0 0 19 19" width="19" height="19">
	<path id="Combined Shape" style="fill: #78c800" d="M15.75,10.81c-0.16,0.6 -0.39,1.16 -0.7,1.68l1.14,1.89c-0.25,0.34 -0.52,0.67 -0.83,0.97c-0.31,0.31 -0.64,0.58 -0.97,0.83l-1.89,-1.14c-0.52,0.3 -1.09,0.54 -1.69,0.7l-0.54,2.14c-0.42,0.06 -0.84,0.1 -1.27,0.1c-0.43,0 -0.86,-0.04 -1.28,-0.1l-0.54,-2.14c-0.6,-0.16 -1.16,-0.39 -1.69,-0.7l-1.89,1.14c-0.34,-0.25 -0.67,-0.52 -0.97,-0.83c-0.31,-0.31 -0.58,-0.64 -0.83,-0.97l1.14,-1.89c-0.3,-0.52 -0.54,-1.09 -0.7,-1.68l-2.14,-0.54c-0.06,-0.42 -0.1,-0.84 -0.1,-1.27c0,-0.43 0.04,-0.86 0.1,-1.28l2.14,-0.54c0.16,-0.6 0.39,-1.16 0.7,-1.68l-1.14,-1.89c0.25,-0.34 0.52,-0.67 0.83,-0.97c0.31,-0.31 0.63,-0.58 0.97,-0.83l1.89,1.14c0.52,-0.3 1.09,-0.54 1.69,-0.7l0.54,-2.14c0.42,-0.06 0.84,-0.1 1.28,-0.1c0.43,0 0.86,0.04 1.27,0.1l0.54,2.14c0.6,0.16 1.16,0.39 1.69,0.7l1.89,-1.14c0.34,0.25 0.67,0.52 0.97,0.83c0.31,0.31 0.58,0.64 0.83,0.97l-1.14,1.89c0.3,0.52 0.54,1.09 0.7,1.68l2.14,0.54c0.06,0.42 0.1,0.84 0.1,1.28c0,0.43 -0.04,0.86 -0.1,1.27zM12,9c0,-1.66 -1.34,-3 -3,-3c-1.66,0 -3,1.34 -3,3c0,1.66 1.34,3 3,3c1.66,0 3,-1.34 3,-3z" />
</svg>