<svg xmlns="http://www.w3.org/2000/svg" viewBox="0 0 14 8" width="14" height="8">
	<style>
		tspan { white-space:pre }
		.shp0 { fill: #78c800 } 
	</style>
	<path id="Combined Shape" class="shp0" d="M13.54,6.12l-5.66,-5.66c-0.39,-0.39 -1.02,-0.39 -1.41,0v0c-0.39,0.39 -0.39,1.02 0,1.41l5.66,5.66c0.39,0.39 1.02,0.39 1.41,0v0c0.39,-0.39 0.39,-1.02 0,-1.41zM6.12,0.46l-5.66,5.66c-0.39,0.39 -0.39,1.02 0,1.41v0c0.39,0.39 1.02,0.39 1.41,0l5.66,-5.66c0.39,-0.39 0.39,-1.02 0,-1.41v0c-0.39,-0.39 -1.02,-0.39 -1.41,0z" />
</svg>