<?xml version="1.0" encoding="utf-8"?>
<!-- Generator: Adobe Illustrator 18.1.1, SVG Export Plug-In . SVG Version: 6.00 Build 0)  -->
<svg version="1.1" id="Слой_1" xmlns="http://www.w3.org/2000/svg" xmlns:xlink="http://www.w3.org/1999/xlink" x="0px" y="0px"
	 viewBox="0 0 18.7080002 24.6757393" enable-background="new 0 0 18.7080002 24.6757393" xml:space="preserve">
<g>
	<path fill="#00BE2D" d="M9.3540001,24.6783676c0,0,9.3540001-10.159997,9.3540001-15.3269968
		c0-5.1659999-4.1879997-9.3540001-9.3540001-9.3540001S0.0000006,4.1853709,0.0000006,9.3513708
		C0.0000006,14.5183706,9.3540001,24.6783676,9.3540001,24.6783676"/>
	<path fill="#FFFFFF" d="M9.3540001,16.7129688c4.066,0,7.3610001-3.2959986,7.3610001-7.3609982
		c0-4.066-3.2950001-7.3609996-7.3610001-7.3609996S1.9930005,5.2859707,1.9930005,9.3519707
		C1.9930005,13.4169703,5.2880006,16.7129688,9.3540001,16.7129688"/>
	<path d="M15.2711,7.0341706l-3.8339996-0.02l0.0620003,0.6460004l3.349-0.0010004l0.1239996,0.2950001l0.0050001,0.033
		l0.073,0.9690003l-0.4119997,0.0549994l-0.5020008,1.533l-0.5409994-0.0219994
		C13.3751001,10.3271704,13.0871,10.2081709,12.7711,10.2081709c-0.5310001,0-0.9840002,0.335-1.1619997,0.8039999
		l-2.3909998,0.0869999c-0.0190001-0.8479996-0.7139997-1.5310001-1.566-1.5310001c-0.756,0-1.3889999,0.5370007-1.5360003,1.25
		c-0.4089999,0.2259998-0.9039998,0.4969997-1.2139997,0.665l-0.1480002-0.6759996l2.29-1.1879997L7.0011005,6.5761709
		l4.9329996,0.0359998l0.1809998,0.2620001l3.4499998,0.0079999l0.0640001,0.743l-0.2009993-0.0019999L15.2711,7.0341706z
		 M12.7711,12.1691704c-0.3959999,0-0.7189999-0.323-0.7189999-0.7189999s0.323-0.7179995,0.7189999-0.7179995
		s0.7189999,0.3219995,0.7189999,0.7179995S13.1671,12.1691704,12.7711,12.1691704 M7.6521006,12.180171
		c-0.5760002,0-1.0450001-0.4680004-1.0450001-1.0440006c0-0.5759993,0.4689999-1.0450001,1.0450001-1.0450001
		c0.5749998,0,1.0439997,0.4690008,1.0439997,1.0450001C8.6961002,11.7121706,8.2271004,12.180171,7.6521006,12.180171
		 M5.0371003,9.2901707L4.6921005,6.7581711L4.0381002,6.707171L4.0001006,6.5411711l2.4779997,0.0299997l0.0380001,2.7329998
		L6.0861006,9.5271711L5.7681003,9.2401705L5.0371003,9.2901707z M4.3171005,11.8911705
		c-0.0690002,0.0720005-0.21,0.2210007-0.2750001,0.2490005c-0.155,0-0.849-0.0040007-1.441-0.007l1.677-1.0530005l0.152,0.6940002
		C4.3951006,11.8091707,4.3571005,11.8481703,4.3171005,11.8911705 M16.2000999,8.1551704l-0.1550007-1.7949996L12.3901005,6.351171
		l-0.1809998-0.2600002l-5.4710002-0.04L3.3421004,6.009171l0.2720001,1.1889997l0.6160002,0.0490003l0.355,2.598
		l0.9969997-0.0679998l0.0079999,0.007l-1.3259997,0.6879997l-3.464,2.1750002l0.8989999,0.0050001
		c0.087,0,2.1399999,0.0109997,2.3569999,0.0109997c0.2490001,0,0.4570003-0.2189999,0.6410003-0.4119997
		c0.046-0.0490007,0.1139998-0.1220007,0.1429996-0.1420002c0.1230001-0.0609999,0.803-0.434,1.27-0.6900005
		c0.1340003,0.7300005,0.7740002,1.2840004,1.5420003,1.2840004c0.6929998,0,1.2819996-0.4519997,1.4889994-1.0780001
		l2.3920002-0.0869999c0.0450001,0.6440001,0.5830002,1.1540003,1.2379999,1.1540003
		c0.6850004,0,1.2420006-0.5570002,1.2420006-1.2420006c0-0.1359997-0.0230007-0.2670002-0.0630007-0.3899994l0.5600004,0.0229998
		l0.5229998-1.5970001l0.5749998-0.0769997L15.5141001,8.147171L16.2000999,8.1551704z"/>
</g>
</svg>
