<?xml version="1.0" encoding="UTF-8"?>
<svg width="24px" height="14px" viewBox="0 0 24 14" version="1.1" xmlns="http://www.w3.org/2000/svg" xmlns:xlink="http://www.w3.org/1999/xlink">
    <!-- Generator: Sketch 48.2 (47327) - http://www.bohemiancoding.com/sketch -->
    <title>Group 4</title>
    <desc>Created with Sketch.</desc>
    <defs></defs>
    <g id="Шаблон" stroke="none" stroke-width="1" fill="none" fill-rule="evenodd">
        <g id="Group-4" transform="translate(-1.000000, -3.000000)">
            <polygon id="Fill-17" points="0 20 26 20 26 0 0 0"></polygon>
            <path style="fill:#D10B41" d="M17,11 C18.657,11 20,12.343 20,14 C20,15.657 18.657,17 17,17 C15.343,17 14,15.657 14,14 C14,12.343 15.343,11 17,11 Z M6,11 C7.657,11 9,12.343 9,14 C9,15.657 7.657,17 6,17 C4.343,17 3,15.657 3,14 C3,12.343 4.343,11 6,11 Z M25,17 L21,17 L21,13 C23.209,13 25,14.791 25,17 Z M17,3 L23,3 L22,10 L17,10 C14.791,10 13,11.791 13,14 L13,16 L10,16 L10,14 C10,11.791 8.209,10 6,10 C3.791,10 2,11.791 2,14 L1,14 L1,10 L2,8 L10,7 L14,7 L14.429,4 L12,4 L12.143,3 L14.571,3 L16,3 L16,4 L16,7 L17,7 L17,3 Z M6,15 C6.552,15 7,14.552 7,14 C7,13.448 6.552,13 6,13 C5.448,13 5,13.448 5,14 C5,14.552 5.448,15 6,15 Z M17,15 C17.552,15 18,14.552 18,14 C18,13.448 17.552,13 17,13 C16.448,13 16,13.448 16,14 C16,14.552 16.448,15 17,15 Z" id="Combined-Shape" fill="#202020"></path>
        </g>
    </g>
</svg>