<svg width="140" height="10" viewBox="0 0 140 10" version="1.1" xmlns="http://www.w3.org/2000/svg" xmlns:xlink="http://www.w3.org/1999/xlink">
<title>&#208;&#155;&#208;&#190;&#208;&#179;&#208;&#190;&#209;&#130;&#208;&#184;&#208;&#191;</title>
<desc>Created using Figma</desc>
<g id="Canvas" transform="translate(-1546 -353)">
<g id="&#208;&#155;&#208;&#190;&#208;&#179;&#208;&#190;&#209;&#130;&#208;&#184;&#208;&#191;">
<use xlink:href="#path0_fill" transform="translate(1546 353)" fill="#FFFFFF"/>
</g>
</g>
<defs>
<path id="path0_fill" fill-rule="evenodd" d="M 1.53514 9.89465L 2.81919 7.80246L 10.8411 7.80246L 12.1247 9.89465L 13.6599 9.89465L 7.68248 0.105377L 5.97737 0.105377L 0 9.89465L 1.53514 9.89465ZM 6.82671 1.17734L 10.2025 6.72343L 3.45728 6.72343L 6.82671 1.17734ZM 26.7257 6.1317L 26.7257 7.05927C 26.7257 7.73471 26.5402 8.21496 26.1687 8.5C 25.7972 8.78081 25.2202 8.92098 24.4364 8.92098L 19.2336 8.92098C 18.2958 8.92098 17.6528 8.7413 17.3041 8.38147C 16.9603 8.0174 16.7879 7.44073 16.7879 6.65099L 16.7879 3.22342C 16.7879 2.47366 16.9739 1.92992 17.3449 1.59219C 17.7208 1.24976 18.3483 1.07902 19.2268 1.07902L 23.2276 1.07902C 24.7263 1.07902 25.6796 1.1952 26.0871 1.42756C 26.4994 1.65992 26.7053 2.20179 26.7053 3.05268L 27.9826 3.05268L 27.9826 2.68391C 27.9826 0.894638 26.7078 0 24.1581 0L 19.1384 0C 17.8204 0 16.8763 0.265287 16.3056 0.795861C 15.7399 1.32691 15.4456 2.22342 15.4227 3.48683L 15.4227 6.3683C 15.4227 7.68391 15.7059 8.61853 16.2716 9.17074C 16.8379 9.72342 17.7752 10 19.084 10L 24.6064 10C 25.8972 10 26.8005 9.73236 27.3168 9.19708C 27.833 8.65757 28.0909 7.77846 28.0909 6.55927L 28.0909 5.05268L 21.5701 5.05268L 21.5701 6.1317L 26.7257 6.1317ZM 32.7099 9.89465L 32.7099 6.01977L 39.3395 6.01977C 40.1413 6.01977 40.6867 6.14018 40.9766 6.38148C 41.2665 6.61855 41.4113 7.06775 41.4113 7.73002L 41.4113 9.89465L 42.6885 9.89465L 42.6885 7.42758C 42.6885 6.34856 42.0999 5.71685 40.9222 5.53294C 41.5973 5.45392 42.0815 5.27847 42.3762 5.0066C 42.6705 4.73473 42.8177 4.27424 42.8177 3.62513L 42.8177 2.8288C 42.8177 1.78506 42.5773 1.0701 42.0975 0.683928C 41.6177 0.298228 40.7527 0.105377 39.5027 0.105377L 31.3447 0.105377L 31.3447 9.89465L 32.7099 9.89465ZM 32.71 1.1839L 39.0273 1.1839C 39.9238 1.1839 40.5513 1.28079 40.9087 1.47364C 41.271 1.66226 41.4521 2.05031 41.4521 2.63827L 41.4521 3.50657C 41.4521 4.06772 41.2622 4.4473 40.8815 4.64486C 40.5056 4.84194 39.9554 4.94072 39.2313 4.94072L 32.71 4.94072L 32.71 1.1839ZM 46.7029 9.17074C 47.2692 9.72342 48.2041 10 49.5085 10L 55.2348 10C 56.548 10 57.4785 9.72154 58.0263 9.16463C 58.5741 8.60724 58.848 7.69285 58.848 6.42098L 58.848 3.59219C 58.848 2.35089 58.579 1.44309 58.0399 0.868297C 57.5057 0.289276 56.5703 0 55.2348 0L 49.5085 0C 48.2041 0 47.2692 0.278457 46.7029 0.835372C 46.1367 1.38805 45.854 2.29398 45.854 3.55268L 45.854 6.44732C 45.854 7.70602 46.1367 8.61383 46.7029 9.17074ZM 47.7422 1.61194C 48.0909 1.25634 48.7178 1.07901 49.6236 1.07901L 55.1192 1.07901C 55.9477 1.07901 56.548 1.24317 56.919 1.57242C 57.2949 1.90121 57.4828 2.44731 57.4828 3.21024L 57.4828 6.80902C 57.4828 7.51974 57.3017 8.05032 56.9394 8.40121C 56.5771 8.74787 55.9705 8.92097 55.1192 8.92097L 49.6236 8.92097C 48.7814 8.92097 48.17 8.75446 47.7898 8.42097C 47.4095 8.08324 47.2191 7.54185 47.2191 6.79585L 47.2191 3.19049C 47.2191 2.4934 47.3935 1.96706 47.7422 1.61194ZM 61.0966 1.18393L 66.2046 1.18393L 66.2046 9.89465L 67.5698 9.89465L 67.5698 1.18393L 72.6783 1.18393L 72.6783 0.105377L 61.0966 0.105377L 61.0966 1.18393ZM 76.4887 9.89465L 76.4887 6.01977L 83.1183 6.01977C 83.9201 6.01977 84.4655 6.14018 84.7554 6.38148C 85.0453 6.61855 85.1901 7.06775 85.1901 7.73002L 85.1901 9.89465L 86.4673 9.89465L 86.4673 7.42758C 86.4673 6.34856 85.8782 5.71685 84.701 5.53294C 85.3756 5.45392 85.8603 5.27847 86.1546 5.0066C 86.4489 4.73473 86.596 4.27424 86.596 3.62513L 86.596 2.8288C 86.596 1.78506 86.3561 1.0701 85.8763 0.683928C 85.396 0.298228 84.531 0.105377 83.2815 0.105377L 75.1235 0.105377L 75.1235 9.89465L 76.4887 9.89465ZM 76.4888 1.1839L 82.8061 1.1839C 83.7026 1.1839 84.3296 1.28079 84.6875 1.47364C 85.0498 1.66226 85.2309 2.05031 85.2309 2.63827L 85.2309 3.50657C 85.2309 4.06772 85.0406 4.4473 84.6603 4.64486C 84.2844 4.84194 83.7342 4.94072 83.0096 4.94072L 76.4888 4.94072L 76.4888 1.1839ZM 90.4817 9.17074C 91.0475 9.72342 91.9829 10 93.2868 10L 99.0131 10C 100.326 10 101.257 9.72154 101.805 9.16463C 102.353 8.60724 102.627 7.69285 102.627 6.42098L 102.627 3.59219C 102.627 2.35089 102.357 1.44309 101.819 0.868297C 101.284 0.289276 100.349 0 99.0131 0L 93.2868 0C 91.9829 0 91.0475 0.278457 90.4817 0.835372C 89.9155 1.38805 89.6323 2.29398 89.6323 3.55268L 89.6323 6.44732C 89.6323 7.70602 89.9155 8.61383 90.4817 9.17074ZM 91.5211 1.61194C 91.8698 1.25634 92.4968 1.07901 93.4025 1.07901L 98.8976 1.07901C 99.7266 1.07901 100.326 1.24317 100.698 1.57242C 101.074 1.90121 101.262 2.44731 101.262 3.21024L 101.262 6.80902C 101.262 7.51974 101.081 8.05032 100.718 8.40121C 100.356 8.74787 99.749 8.92097 98.8976 8.92097L 93.4025 8.92097C 92.5604 8.92097 91.9489 8.75446 91.5687 8.42097C 91.1879 8.08324 90.998 7.54185 90.998 6.79585L 90.998 3.19049C 90.998 2.4934 91.1724 1.96706 91.5211 1.61194ZM 105.915 9.89465L 107.28 9.89465L 107.28 1.28929L 116.559 9.89465L 118.583 9.89465L 118.583 0.105377L 117.218 0.105377L 117.218 8.71027L 107.939 0.105377L 105.915 0.105377L 105.915 9.89465ZM 123.107 9.89465L 124.473 9.89465L 124.473 0.105377L 123.107 0.105377L 123.107 9.89465ZM 138.723 7.27611C 138.723 7.8904 138.556 8.31797 138.221 8.55927C 137.885 8.80056 137.274 8.92098 136.386 8.92098L 131.611 8.92098C 130.728 8.92098 130.111 8.74318 129.763 8.38805C 129.415 8.02869 129.24 7.49765 129.24 6.79586L 129.24 3.1905C 129.24 2.4539 129.422 1.91863 129.784 1.58561C 130.146 1.24788 130.755 1.07902 131.611 1.07902L 136.393 1.07902C 137.204 1.07902 137.772 1.20837 138.098 1.46707C 138.424 1.72154 138.587 2.17545 138.587 2.82879L 138.587 3.26294L 139.783 3.26294L 139.783 2.40781C 139.783 0.802446 138.737 0 136.645 0L 131.503 0C 130.207 0 129.279 0.278457 128.717 0.835372C 128.156 1.38805 127.875 2.29398 127.875 3.55268L 127.875 6.44732C 127.875 7.70602 128.154 8.61383 128.711 9.17074C 129.268 9.72342 130.198 10 131.503 10L 136.638 10C 137.86 10 138.725 9.80056 139.233 9.40122C 139.744 9.00235 140 8.32032 140 7.35513L 140 6.6317L 138.723 6.6317L 138.723 7.27611Z"/>
</defs>
</svg>
