<svg xmlns="http://www.w3.org/2000/svg" viewBox="0 0 20 20" width="20" height="20">
	<defs>
	</defs>
	<path id="Combined Shape" style="fill-opacity: 0.302;fill: #202020" d="M4,18c0,-1.1 -0.9,-2 -2,-2c-1.1,0 -2,0.9 -2,2c0,1.1 0.9,2 2,2c1.1,0 2,-0.9 2,-2M8,14c0,-1.1 -0.9,-2 -2,-2c-1.1,0 -2,0.9 -2,2c0,1.1 0.9,2 2,2c1.1,0 2,-0.9 2,-2M12,10c0,-1.1 -0.9,-2 -2,-2c-1.1,0 -2,0.9 -2,2c0,1.1 0.9,2 2,2c1.1,0 2,-0.9 2,-2M20,2c0,-1.1 -0.9,-2 -2,-2c-1.1,0 -2,0.9 -2,2c0,1.1 0.9,2 2,2c1.1,0 2,-0.9 2,-2M9,4l7,7v-7z" />
</svg>