<?xml version="1.0" encoding="utf-8"?>
<!-- Generator: Adobe Illustrator 18.1.1, SVG Export Plug-In . SVG Version: 6.00 Build 0)  -->
<svg version="1.1" id="Слой_1" xmlns="http://www.w3.org/2000/svg" xmlns:xlink="http://www.w3.org/1999/xlink" x="0px" y="0px"
	 viewBox="0 0 170.0787354 31.1817017" enable-background="new 0 0 170.0787354 31.1817017" xml:space="preserve">
<polygon fill="#DB0029" points="154.4775238,0.0091187 141.4802856,12.1339436 128.4998627,0.0091187 112.9154282,0.0091187 
	112.9154282,31.1815815 128.4998627,31.1815815 128.4998627,7.2787342 141.4802856,19.3987598 154.4775238,7.2787342 
	154.4775238,31.1815815 170.0787354,31.1815815 170.0787354,0.0091187 "/>
<path fill="#DB0029" d="M35.2200699,20.7708416L15.5664291,20.790041V5.2020097h19.6704407
	c0.6372032,2.1360049,1.1040039,4.6848083,1.1040039,7.754415C36.3408737,16.0440311,35.8656731,18.6096363,35.2200699,20.7708416
	 M48.895298,25.1256504h-0.0024033c1.9368057-3.637207,3.0372086-7.7592163,3.0372086-12.1692257
	c0-4.7160091-1.2708054-9.1356173-3.4740067-12.946825L0,0v31.1736622h15.5664291v-5.1924095h18.268837l2.5980072,5.1996098
	h15.6144295L48.895298,25.1256504z"/>
<path fill="#DB0029" d="M103.3500824,12.9644651H73.0404205c-0.4464035-1.2252016-0.6539993-2.5200052-0.6539993-3.9024086
	c0-1.3848019,0.2075958-2.679605,0.6539993-3.8568063h30.5244522V0.004438L61.1399956,0.00924
	C58.4603882,2.1020436,56.80439,5.3612499,56.80439,9.0620565c0,3.7020082,1.7315979,6.9600153,4.4112091,9.1092196h30.3060532
	c0.4488068,1.227602,0.6696014,2.5152054,0.6696014,3.9036064c0,1.3812027-0.2207947,2.6760063-0.6696014,3.9060097H57.8411903
	v5.2008095h45.5088921c2.6795959-2.1492043,4.4316025-5.4096107,4.4316025-9.1092186
	C107.7816849,18.3680763,106.0296783,15.11127,103.3500824,12.9644651"/>
</svg>
