<svg width="18" height="18" viewBox="0 0 18 18" version="1.1" xmlns="http://www.w3.org/2000/svg" xmlns:xlink="http://www.w3.org/1999/xlink">
<title>Combined Shape</title>
<desc>Created using Figma</desc>
<g id="Canvas" transform="translate(-1547 -1251)">
<g id="Combined Shape">
<use xlink:href="#path0_fill" transform="translate(1547 1251)" fill="#FFFFFF"/>
</g>
</g>
<defs>
<path id="path0_fill" fill-rule="evenodd" d="M 18 9C 18 9.43396 17.959 9.85706 17.899 10.275L 15.754 10.811C 15.594 11.408 15.36 11.973 15.057 12.496L 16.194 14.391C 15.941 14.728 15.67 15.057 15.363 15.363C 15.057 15.671 14.728 15.941 14.391 16.194L 12.496 15.057C 11.973 15.36 11.408 15.594 10.811 15.754L 10.275 17.899C 9.85706 17.959 9.43396 18 9 18C 8.56604 18 8.14197 17.959 7.724 17.899L 7.18799 15.754C 6.59094 15.594 6.026 15.36 5.50305 15.057L 3.60803 16.194C 3.271 15.941 2.94202 15.671 2.63599 15.363C 2.32898 15.057 2.05896 14.728 1.80505 14.391L 2.94202 12.496C 2.63904 11.973 2.40503 11.408 2.245 10.811L 0.0999756 10.275C 0.0410156 9.85706 0 9.43396 0 9C 0 8.56604 0.0410156 8.14197 0.0999756 7.724L 2.245 7.18799C 2.40503 6.59094 2.63904 6.026 2.94202 5.50305L 1.80505 3.60803C 2.05896 3.271 2.32898 2.94202 2.63599 2.63599C 2.94202 2.32898 3.271 2.05798 3.60803 1.80505L 5.50305 2.94202C 6.026 2.63904 6.59094 2.40503 7.18799 2.245L 7.724 0.0999756C 8.14197 0.0410156 8.56604 0 9 0C 9.43396 0 9.85706 0.0410156 10.275 0.0999756L 10.811 2.245C 11.408 2.40503 11.973 2.63904 12.496 2.94202L 14.391 1.80505C 14.728 2.05798 15.057 2.32898 15.363 2.63599C 15.67 2.94202 15.941 3.271 16.194 3.60803L 15.057 5.50305C 15.36 6.026 15.594 6.59094 15.754 7.18799L 17.899 7.724C 17.959 8.14197 18 8.56604 18 9ZM 8.99963 11.9996C 10.6566 11.9996 11.9996 10.6566 11.9996 8.99963C 11.9996 7.34265 10.6566 5.99963 8.99963 5.99963C 7.34265 5.99963 5.99963 7.34265 5.99963 8.99963C 5.99963 10.6566 7.34265 11.9996 8.99963 11.9996Z"/>
</defs>
</svg>
