<svg xmlns="http://www.w3.org/2000/svg" viewBox="0 0 19 15" width="19" height="15"><style>tspan { white-space:pre }.shp0 { fill: #fff } </style><path id="Fill 3" class="shp0" d="M8,9.95l0.01,-7.7l3.72,6.75l-0.01,0c0.09,0.16 0.17,0.32 0.22,0.51c0.27,1.07 -0.37,2.16 -1.44,2.43c-1.07,0.27 -2.16,-0.37 -2.43,-1.44c-0.05,-0.18 -0.06,-0.37 -0.05,-0.55zM10,1c-4.97,0 -9,4.03 -9,9c0,1.74 0.5,3.35 1.35,4.72c2.32,-1.09 4.91,-1.73 7.65,-1.73c2.74,0 5.32,0.63 7.65,1.73c0.85,-1.37 1.35,-2.99 1.35,-4.72c0,-4.97 -4.03,-9 -9,-9z" /></svg>