<svg xmlns="http://www.w3.org/2000/svg" viewBox="0 0 30 31" width="30" height="31">
	<defs>
	</defs>
	<path id="Combined Shape" style="fill: #78c800" d="M23,14c1.1,0 2,0.9 2,2c0,1.1 -0.9,2 -2,2h-1.29c-0.67,2.26 -2.45,4.03 -4.71,4.71v1.29c0,1.1 -0.9,2 -2,2c-1.1,0 -2,-0.9 -2,-2v-1.29c-2.26,-0.67 -4.03,-2.45 -4.71,-4.71h-1.29c-1.1,0 -2,-0.9 -2,-2c0,-1.1 0.9,-2 2,-2h1.29c0.67,-2.26 2.45,-4.03 4.71,-4.71v-1.29c0,-1.1 0.9,-2 2,-2c1.1,0 2,0.9 2,2v1.29c2.26,0.67 4.03,2.45 4.71,4.71zM15,19c1.66,0 3,-1.34 3,-3c0,-1.66 -1.34,-3 -3,-3c-1.66,0 -3,1.34 -3,3c0,1.66 1.34,3 3,3z" />
</svg>