<svg width="16" height="18" viewBox="0 0 16 18" version="1.1" xmlns="http://www.w3.org/2000/svg" xmlns:xlink="http://www.w3.org/1999/xlink">
<title>Combined Shape</title>
<desc>Created using Figma</desc>
<g id="Canvas" transform="translate(-1548 -549)">
<g id="Combined Shape">
<use xlink:href="#path0_fill" transform="translate(1548 549)" fill="#FFFFFF"/>
</g>
</g>
<defs>
<path id="path0_fill" fill-rule="evenodd" d="M 8 18C 6.90002 18 6 17.1 6 16L 6 2C 6 0.900024 6.90002 0 8 0C 9.09998 0 10 0.900024 10 2L 10 16C 10 17.1 9.09998 18 8 18ZM 14 18C 12.9 18 12 17.1 12 16L 12 12C 12 10.9 12.9 10 14 10C 15.1 10 16 10.9 16 12L 16 16C 16 17.1 15.1 18 14 18ZM 0 16C 0 17.1 0.900024 18 2 18C 3.09998 18 4 17.1 4 16L 4 7C 4 5.90002 3.09998 5 2 5C 0.900024 5 0 5.90002 0 7L 0 16Z"/>
</defs>
</svg>
